<?xml version="1.0" encoding="utf-8"?>
<!-- Generator: Adobe Illustrator 21.1.0, SVG Export Plug-In . SVG Version: 6.00 Build 0)  -->
<svg version="1.1" id="content" xmlns="http://www.w3.org/2000/svg" xmlns:xlink="http://www.w3.org/1999/xlink" x="0px" y="0px"
	 viewBox="0 0 54 54" style="enable-background:new 0 0 54 54;" xml:space="preserve">
<g id="ic_2_">
	
		<linearGradient id="ic-3_1_" gradientUnits="userSpaceOnUse" x1="12.1309" y1="389" x2="41.7509" y2="389" gradientTransform="matrix(1 0 0 1 0 -362)">
		<stop  offset="5.102030e-03" style="stop-color:#8FFFCE"/>
		<stop  offset="1" style="stop-color:#77D1FC"/>
	</linearGradient>
	<path id="ic-3" style="fill:url(#ic-3_1_);" d="M37.3,42.6H16.5c-1.6,0-2.8-0.6-3.6-1.7c-0.9-1.3-1.1-3.1-0.4-4.9
		c0-0.1,3.6-6.8,9.5-16.4v-4.4c-0.8-0.3-1.3-1-1.3-1.9c0-1.1,0.9-2,2-2h8.6c1.1,0,2,0.9,2,2c0,0.9-0.5,1.6-1.3,1.9v4.4
		c5.3,8.6,8.7,15,9.4,16.2l0.1,0.1c0.6,1.9,0.5,3.7-0.4,5C40.1,42,38.9,42.6,37.3,42.6z M22.6,12.4c-0.5,0-1,0.4-1,1
		c0,0.5,0.4,0.9,0.9,1l0.4,0.1V20l-0.1,0.1c-5.8,9.5-9.4,16.3-9.5,16.3c-0.5,1.5-0.4,3,0.3,4c0.6,0.8,1.5,1.3,2.8,1.3h20.8
		c1.2,0,2.2-0.4,2.8-1.3c0.7-1,0.8-2.5,0.3-4.1l0,0c-0.6-1.2-4.1-7.5-9.4-16.2L30.8,20v-5.5l0.4-0.1c0.5-0.1,0.9-0.5,0.9-1
		s-0.4-1-1-1H22.6z"/>
</g>
</svg>
