<?xml version="1.0" encoding="utf-8"?>
<!-- Generator: Adobe Illustrator 21.1.0, SVG Export Plug-In . SVG Version: 6.00 Build 0)  -->
<svg version="1.1" id="content" xmlns="http://www.w3.org/2000/svg" xmlns:xlink="http://www.w3.org/1999/xlink" x="0px" y="0px"
	 viewBox="0 0 54 54" style="enable-background:new 0 0 54 54;" xml:space="preserve">
<g id="ic_1_">
	<linearGradient id="SVGID_1_" gradientUnits="userSpaceOnUse" x1="9.2" y1="27" x2="44.8" y2="27">
		<stop  offset="5.102030e-03" style="stop-color:#8FFFCE"/>
		<stop  offset="1" style="stop-color:#77D1FC"/>
	</linearGradient>
	<path style="fill:none;stroke:url(#SVGID_1_);stroke-miterlimit:10;" d="M9.7,31.1c0-0.9,0.3-1.7,1-2.3c0.9-0.9,2.3-1.2,3.4-0.8
		l4.7-4.7c-0.3-0.4-0.4-0.8-0.4-1.2c0-0.5,0.2-1,0.6-1.4l1.7-1.7c0.7-0.7,1.9-0.8,2.6-0.2l4.7-4.7c-0.1-0.3-0.2-0.7-0.2-1.1
		c0-0.9,0.3-1.7,1-2.3c1.2-1.2,3.4-1.3,4.6,0c0.6,0.6,1,1.4,1,2.3c0,0.9-0.3,1.7-1,2.3c-0.9,0.9-2.3,1.2-3.4,0.8l-1.3,1.3
		c1-0.2,2-0.3,3.1-0.3c2.7,0,5.2,0.7,7.4,2.1c0.8-0.7,2-0.7,2.8,0.1l1.7,1.7c0.4,0.4,0.6,0.9,0.6,1.4s-0.2,1-0.6,1.4L42,25.5
		c-0.8,0.8-2.1,0.8-2.8,0l-1.7-1.7c-0.4-0.4-0.6-0.9-0.6-1.4c0-0.4,0.1-0.7,0.3-1c-3.6-2-8-1.8-11.5,0.4c0.1,0.6-0.1,1.3-0.6,1.7
		l-1.7,1.7c-0.5,0.5-1.1,0.7-1.7,0.6c-2.2,3.5-2.4,7.9-0.4,11.5c0.8-0.4,1.8-0.3,2.4,0.3l1.7,1.7c0.8,0.8,0.8,2.1,0,2.8l-1.7,1.7
		c-0.4,0.3-0.9,0.5-1.4,0.5s-1-0.2-1.4-0.6L19.2,42c-0.8-0.8-0.8-2,0-2.8c-1.4-2.2-2.1-4.8-2.1-7.4c0-1,0.1-2.1,0.3-3.1L16.1,30
		c0.4,1.2,0.1,2.5-0.8,3.4c-1.2,1.2-3.4,1.3-4.6,0C10.1,32.8,9.7,32,9.7,31.1"/>
	<linearGradient id="SVGID_2_" gradientUnits="userSpaceOnUse" x1="20.6929" y1="40.5689" x2="23.9071" y2="40.5689">
		<stop  offset="5.102030e-03" style="stop-color:#8FFFCE"/>
		<stop  offset="1" style="stop-color:#77D1FC"/>
	</linearGradient>
	
		<rect x="21.7" y="39.9" transform="matrix(0.7071 -0.7071 0.7071 0.7071 -22.1551 27.651)" style="fill:none;stroke:url(#SVGID_2_);stroke-miterlimit:10;" width="1.3" height="1.3"/>
	<linearGradient id="SVGID_3_" gradientUnits="userSpaceOnUse" x1="38.8929" y1="22.3689" x2="42.1071" y2="22.3689">
		<stop  offset="5.102030e-03" style="stop-color:#8FFFCE"/>
		<stop  offset="1" style="stop-color:#77D1FC"/>
	</linearGradient>
	
		<rect x="39.9" y="21.7" transform="matrix(0.7071 -0.7071 0.7071 0.7071 -3.9551 35.1895)" style="fill:none;stroke:url(#SVGID_3_);stroke-miterlimit:10;" width="1.3" height="1.3"/>
	<linearGradient id="SVGID_4_" gradientUnits="userSpaceOnUse" x1="20.3929" y1="22.0689" x2="23.6071" y2="22.0689">
		<stop  offset="5.102030e-03" style="stop-color:#8FFFCE"/>
		<stop  offset="1" style="stop-color:#77D1FC"/>
	</linearGradient>
	
		<rect x="21.4" y="21.4" transform="matrix(0.7071 -0.7071 0.7071 0.7071 -9.1614 22.0203)" style="fill:none;stroke:url(#SVGID_4_);stroke-miterlimit:10;" width="1.3" height="1.3"/>
	<linearGradient id="SVGID_5_" gradientUnits="userSpaceOnUse" x1="29.3929" y1="13.0689" x2="32.6071" y2="13.0689">
		<stop  offset="5.102030e-03" style="stop-color:#8FFFCE"/>
		<stop  offset="1" style="stop-color:#77D1FC"/>
	</linearGradient>
	
		<rect x="30.4" y="12.4" transform="matrix(0.7071 -0.7071 0.7071 0.7071 -0.1614 25.7483)" style="fill:none;stroke:url(#SVGID_5_);stroke-miterlimit:10;" width="1.3" height="1.3"/>
	<linearGradient id="SVGID_6_" gradientUnits="userSpaceOnUse" x1="11.3929" y1="31.0689" x2="14.6071" y2="31.0689">
		<stop  offset="5.102030e-03" style="stop-color:#8FFFCE"/>
		<stop  offset="1" style="stop-color:#77D1FC"/>
	</linearGradient>
	
		<rect x="12.4" y="30.4" transform="matrix(0.7071 -0.7071 0.7071 0.7071 -18.1615 18.2924)" style="fill:none;stroke:url(#SVGID_6_);stroke-miterlimit:10;" width="1.3" height="1.3"/>
	<linearGradient id="SVGID_7_" gradientUnits="userSpaceOnUse" x1="30.7" y1="12.7689" x2="30.7" y2="12.7689">
		<stop  offset="5.102030e-03" style="stop-color:#8FFFCE"/>
		<stop  offset="1" style="stop-color:#77D1FC"/>
	</linearGradient>
	<path style="fill:none;stroke:url(#SVGID_7_);stroke-miterlimit:10;" d="M30.7,12.8L30.7,12.8L30.7,12.8z"/>
</g>
</svg>
