<?xml version="1.0" encoding="utf-8"?>
<!-- Generator: Adobe Illustrator 21.1.0, SVG Export Plug-In . SVG Version: 6.00 Build 0)  -->
<svg version="1.1" id="content" xmlns="http://www.w3.org/2000/svg" xmlns:xlink="http://www.w3.org/1999/xlink" x="0px" y="0px"
	 viewBox="0 0 54 54" style="enable-background:new 0 0 54 54;" xml:space="preserve">
<g id="ic_6_">
	
		<linearGradient id="ic-7_1_" gradientUnits="userSpaceOnUse" x1="12.7508" y1="389" x2="41.1508" y2="389" gradientTransform="matrix(1 0 0 1 0 -362)">
		<stop  offset="5.102030e-03" style="stop-color:#8FFFCE"/>
		<stop  offset="1" style="stop-color:#77D1FC"/>
	</linearGradient>
	<path id="ic-7" style="fill:url(#ic-7_1_);" d="M32,41.7c-0.6,0-1.3,0-2-0.1c-4,0.1-7.8-0.4-7.9-0.4l-1.2-0.1
		c-0.5,0.3-1,0.4-1.5,0.4h-3.6c-1.6,0-3-1.3-3-3v-9.6c0-1.6,1.3-3,3-3h3.6c0.3,0,0.6,0,0.9,0.1c0.3-0.5,0.6-1,1-1.4
		c0.1-0.1,0.1-0.1,0.2-0.2c1.6-1.3,3.7-5.9,4.6-8.3C26,15.3,26,13.9,26.7,13c0.4-0.4,0.9-0.7,1.5-0.7c0.5,0,2.3,0.1,3.4,1.7
		c1,1.4,1.1,3.5,0.2,6.2c-0.4,1.3-0.6,2.1-0.7,2.6c0.1,0,0.2,0,0.3-0.1l0,0c0,0,1.3-0.3,3-0.4c2.3-0.1,4,0.3,5.1,1.3
		c1.5,1.4,1.2,3.1,1,3.9c0.3,0.5,0.7,1.2,0.7,2.1c0,0.9-0.2,1.7-0.8,2.4c0.1,0.3,0.2,0.7,0.2,1.1c0,0.9-0.2,2.1-1.3,3.3
		c0,0.6,0,1.5-0.5,2.3c-0.7,1.3-2,2.1-4,2.5C34,41.6,33.1,41.7,32,41.7z M30,40.6c0.8,0.1,1.4,0.1,2,0.1c1,0,1.9-0.1,2.6-0.2
		c1.7-0.4,2.8-1,3.3-2c0.4-0.7,0.4-1.5,0.3-1.9v-0.3l0.2-0.2c0.8-0.7,1.2-1.6,1.2-2.7c0-0.4-0.1-0.8-0.2-1l-0.1-0.3l0.2-0.2
		c0.5-0.6,0.7-1.3,0.7-2c0-0.8-0.4-1.4-0.7-1.7L39.3,28l0.1-0.3c0.2-0.6,0.6-2-0.6-3.1c-0.8-0.8-2.3-1.1-4.4-1
		c-1.5,0.1-2.8,0.4-2.8,0.4h-0.1c-0.2,0-0.5,0.1-0.8,0.2l-0.6,0.1v-0.6c0-0.5,0.1-1.5,0.8-3.6c0.8-2.4,0.7-4.1-0.1-5.3
		s-2.2-1.2-2.6-1.2c-0.3,0-0.6,0.1-0.8,0.3c-0.6,0.6-0.4,2-0.4,2.4v0.1v0.1c-0.1,0.3-2.7,7.1-5,8.8c-0.5,0.5-0.8,1-1.1,1.6l-0.2,0.5
		l-0.4-0.2C20,27,19.7,27,19.4,27h-3.6c-1.1,0-2,0.9-2,2v9.6c0,1.1,0.9,2,2,2h3.6c0.4,0,0.8-0.1,1.1-0.4l0.2-0.1l1.6,0.2
		C22.2,40.2,26.1,40.7,30,40.6z"/>
</g>
</svg>
