<?xml version="1.0" encoding="utf-8"?>
<!-- Generator: Adobe Illustrator 21.1.0, SVG Export Plug-In . SVG Version: 6.00 Build 0)  -->
<svg version="1.1" id="content" xmlns="http://www.w3.org/2000/svg" xmlns:xlink="http://www.w3.org/1999/xlink" x="0px" y="0px"
	 viewBox="0 0 54 54" style="enable-background:new 0 0 54 54;" xml:space="preserve">
<g id="ic">
	
		<linearGradient id="ic-1_1_" gradientUnits="userSpaceOnUse" x1="15.6242" y1="389" x2="38.4362" y2="389" gradientTransform="matrix(1 0 0 1 0 -362)">
		<stop  offset="5.102030e-03" style="stop-color:#8FFFCE"/>
		<stop  offset="1" style="stop-color:#77D1FC"/>
	</linearGradient>
	<path id="ic-1" style="fill:url(#ic-1_1_);" d="M36.8,43.8c-0.2,0-0.3,0-0.4-0.1h-0.1H17.4c-0.4,0-0.9,0-1.3-0.4
		c-0.3-0.4-0.5-0.7-0.4-1.2c0-0.2,0.1-0.5,0.1-0.7v-0.2c0-0.1,0-0.3,0-0.4c0.1-0.9,0.5-1.5,1.4-1.9l0.1-0.1c0.2-0.1,0.3-0.3,0.3-0.5
		s0-0.4-0.2-0.5c-0.9-0.8-1.1-1.7-0.8-2.8c0-0.1,0-0.2,0-0.3c0.2-1.1,0.5-2.1,2.2-2.1H35c1,0,1.7,0.7,1.9,1.8c0.1,0.4,0.1,1,0.2,1.5
		c0.1,0.7-0.2,1.4-0.8,1.8C36,37.9,36,38.2,36,38.4s0.2,0.4,0.4,0.5c0.7,0.2,1.2,0.7,1.3,1.5v0.2c0,0.1,0,0.2,0.1,0.3l0.1,0.4
		c0,0.2,0.1,0.4,0.1,0.6c0.1,0.7-0.1,1.2-0.7,1.6C37.2,43.7,37,43.8,36.8,43.8z M17.5,42.7h18.7c0.1,0,0.2,0,0.3,0s0.2,0,0.2,0
		c0.3-0.2,0.4-0.4,0.3-0.7c0-0.2-0.1-0.4-0.1-0.6L36.8,41c0-0.1,0-0.3-0.1-0.4c-0.1-0.4-0.3-0.6-0.7-0.7c-0.6-0.2-1-0.6-1.1-1.3
		c-0.1-0.3-0.1-1.1,0.7-1.7c0.3-0.2,0.5-0.5,0.4-0.9c0-0.4-0.1-1-0.2-1.4c0-0.2-0.2-0.9-0.9-0.9H18.7c-0.9,0-1.1,0.2-1.3,1.2
		c0,0.2,0,0.3,0,0.4c-0.2,0.7-0.1,1.3,0.5,1.8c0.4,0.3,0.6,0.9,0.5,1.4c-0.1,0.6-0.5,1-1,1.3l-0.1,0.1c-0.5,0.2-0.7,0.5-0.7,1
		c0,0.1,0,0.3,0,0.4v0.2c0,0.2-0.1,0.4-0.1,0.7c0,0.3,0,0.3,0.2,0.5c0.1,0.1,0.2,0.1,0.5,0.1L17.5,42.7z M20.6,31.7
		c-1.2,0-2.5-1.2-2.5-2.4v-2.1c0-0.3,0.1-0.6,0.1-0.8c0-0.2,0.1-0.4,0.1-0.5c0-0.4,0.1-0.8,0.1-1.2c0-0.3,0.1-0.6,0.1-0.9
		c0.1-1.7,0.3-3.2,0.6-4.6c0.3-1.3,0.8-2.9,1.7-4.2c0.7-1,1.9-2.4,4.1-2.3c0.6,0,0.9-0.1,1.1-0.6c0.5-0.9,1.3-1.6,2.4-1.9
		c0.8-0.2,1.2,0,1.4,0.2c0.2,0.1,0.6,0.5,0.5,1.3v0.1c-0.1,0.7,0.2,1.2,0.8,1.6c0.7,0.5,1.3,1,2,1.6l2.4,1.8c0.7,0.5,1.4,1.1,2,1.6
		s0.9,0.9,0.9,1.5c0.1,0.6-0.1,1.1-0.5,1.7v0.1l0,0l-1,1.2c-1,1.1-2.2,1.3-3.5,0.6c-0.3-0.2-0.7-0.3-1-0.6c-0.2-0.1-0.5-0.2-0.8-0.1
		c-1.2,0.3-2.5,0-3.6-0.8l-0.5-0.4c-0.5-0.4-0.6-1.1-0.2-1.6l0.8,0.6c0,0.1,0,0.2,0,0.2l0.5,0.4c0.9,0.7,1.8,0.9,2.8,0.6
		c0.6-0.1,1.1,0,1.5,0.2c0.3,0.2,0.6,0.4,0.9,0.5c0.9,0.5,1.6,0.4,2.3-0.4l1.1-1.3c0.3-0.4,0.3-0.7,0.3-0.9c0-0.2-0.1-0.5-0.6-0.8
		c-0.7-0.5-1.4-1.1-2-1.6l-4.4-3.4c-0.9-0.7-1.3-1.6-1.1-2.6c0-0.2-0.1-0.4-0.1-0.4c-0.1-0.1-0.3-0.1-0.5,0
		c-0.8,0.2-1.4,0.7-1.8,1.4c-0.4,0.8-1.1,1.2-2.1,1.2c-1.7-0.1-2.6,0.9-3.2,1.8c-0.9,1.2-1.3,2.6-1.6,3.9s-0.5,2.7-0.6,4.4
		c0,0.3-0.1,0.7-0.1,1c-0.1,0.4-0.1,0.7-0.1,1s-0.1,0.5-0.1,0.8c-0.1,0.2-0.1,0.4-0.1,0.5v2.1c0,0.6,0.9,1.4,1.5,1.4h9l3.7-0.1
		c0.6,0,0.8-0.7,0.8-1.1V28c0-0.9-0.3-1.5-0.8-1.9c-0.4-0.3-1.2-0.9-2.1-1.7l-0.9-0.6c0.2-0.2,0.5-0.4,0.8-0.4s0.6,0.1,0.8,0.3
		c0.9,0.8,1.7,1.4,2,1.6c0.8,0.5,1.3,1.4,1.3,2.7v1.4c0,1.2-0.8,2.1-1.8,2.1l-3.7,0.1h-9.1L20.6,31.7L20.6,31.7z"/>
</g>
</svg>
