<?xml version="1.0" encoding="utf-8"?>
<!-- Generator: Adobe Illustrator 21.1.0, SVG Export Plug-In . SVG Version: 6.00 Build 0)  -->
<svg version="1.1" id="content" xmlns="http://www.w3.org/2000/svg" xmlns:xlink="http://www.w3.org/1999/xlink" x="0px" y="0px"
	 viewBox="0 0 54 54" style="enable-background:new 0 0 54 54;" xml:space="preserve">
<g id="ic_5_">
	
		<linearGradient id="ic-6_1_" gradientUnits="userSpaceOnUse" x1="-448.8296" y1="-140.4967" x2="-324.8296" y2="-2.4967" gradientTransform="matrix(1 0 0 1 0 -362)">
		<stop  offset="5.102030e-03" style="stop-color:#8FFFCE"/>
		<stop  offset="1" style="stop-color:#77D1FC"/>
	</linearGradient>
	<path id="ic-6" style="fill:url(#ic-6_1_);" d="M24.9,43.8c-0.8,0-1.5-0.3-2-1c-0.5-0.6-0.7-1.4-0.6-2.2l2.6-13.1l-0.4,0.2
		c-0.6,0.3-1.3,0.4-2,0.2c-0.7-0.2-1.3-0.6-1.6-1.2c-0.3-0.6-0.4-1.3-0.2-2c0.2-0.7,0.6-1.3,1.2-1.6l5.4-3c0.9-0.5,2-0.5,2.8,0.1
		s1.2,1.7,1,2.6l-2.7,13.8l1.4-0.6c1.4-0.6,2.9,0.1,3.4,1.4c0.6,1.4-0.1,2.9-1.4,3.4l-5.9,2.5C25.9,43.6,25.4,43.8,24.9,43.8z
		 M26.3,25.7l-3,15.1c-0.1,0.4,0.1,1,0.4,1.4s0.8,0.6,1.2,0.6c0.2,0,0.5-0.1,0.7-0.2l5.9-2.6c0.4-0.2,0.7-0.5,0.9-0.9
		c0.2-0.4,0.1-0.8,0-1.3c-0.2-0.4-0.5-0.7-0.9-0.9c-0.4-0.2-0.8-0.1-1.3,0l-3.1,1.4l3.1-15.7c0.1-0.6-0.1-1.2-0.7-1.6
		c-0.3-0.2-0.9-0.5-1.7-0.1l-5.4,3c-0.4,0.2-0.6,0.5-0.7,1c-0.1,0.4-0.1,0.9,0.1,1.2c0.2,0.4,0.5,0.6,1,0.7c0.4,0.1,0.9,0.1,1.2-0.1
		L26.3,25.7z M28.6,17.2c-1.9,0-3.5-1.6-3.5-3.5s1.6-3.5,3.5-3.5s3.5,1.6,3.5,3.5S30.5,17.2,28.6,17.2z M28.6,11.2
		c-1.4,0-2.5,1.1-2.5,2.5s1.1,2.5,2.5,2.5s2.5-1.1,2.5-2.5S30,11.2,28.6,11.2z"/>
</g>
</svg>
