<?xml version="1.0" encoding="utf-8"?>
<!-- Generator: Adobe Illustrator 21.1.0, SVG Export Plug-In . SVG Version: 6.00 Build 0)  -->
<svg version="1.1" id="content" xmlns="http://www.w3.org/2000/svg" xmlns:xlink="http://www.w3.org/1999/xlink" x="0px" y="0px"
	 viewBox="0 0 54 54" style="enable-background:new 0 0 54 54;" xml:space="preserve">
<g id="ic_4_">
	
		<linearGradient id="ic-5_1_" gradientUnits="userSpaceOnUse" x1="4.9" y1="389" x2="49.234" y2="389" gradientTransform="matrix(1 0 0 1 0 -362)">
		<stop  offset="5.102030e-03" style="stop-color:#8FFFCE"/>
		<stop  offset="1" style="stop-color:#77D1FC"/>
	</linearGradient>
	<path id="ic-5" style="fill:url(#ic-5_1_);" d="M27.1,36.5c-0.4,0-0.8,0-1.3-0.1c-4.8-0.6-8.7-4.3-9.5-9.1
		c-0.5-3.2,0.4-6.4,2.5-8.8c-4.9,1.4-9.4,4-13,7.7l-0.2,0.2l-0.7-0.7l0.2-0.2c3.7-3.8,8.4-6.5,13.4-8c0.4-0.1,0.9,0,1.1,0.4
		s0.2,0.9-0.1,1.2c-1.9,2.2-2.7,5.1-2.3,8c0.7,4.3,4.3,7.8,8.6,8.3c2.9,0.3,5.6-0.5,7.8-2.4c2.1-1.9,3.3-4.6,3.3-7.4
		c0-2.4-0.9-4.7-2.4-6.5c-0.3-0.3-0.3-0.8-0.1-1.2c0.2-0.4,0.7-0.6,1.1-0.4c5.1,1.4,9.8,4.2,13.6,8l-0.7,0.7
		c-3.7-3.7-8.2-6.4-13.2-7.8c1.7,2,2.7,4.6,2.7,7.2c0,3.1-1.3,6.1-3.7,8.1C32.4,35.5,29.8,36.5,27.1,36.5z M27.1,32.3
		c-3.7,0-6.7-3-6.7-6.7s3-6.6,6.6-6.7c3.7,0,6.7,3,6.7,6.7C33.8,29.3,30.8,32.3,27.1,32.3z M27.1,19.9c-3.2,0-5.7,2.6-5.7,5.7
		s2.5,5.7,5.7,5.7s5.7-2.5,5.7-5.7C32.8,22.5,30.3,19.9,27.1,19.9z"/>
</g>
</svg>
