<?xml version="1.0" encoding="utf-8"?>
<!-- Generator: Adobe Illustrator 20.1.0, SVG Export Plug-In . SVG Version: 6.00 Build 0)  -->
<svg version="1.1" id="Layer_1" xmlns="http://www.w3.org/2000/svg" xmlns:xlink="http://www.w3.org/1999/xlink" x="0px" y="0px"
	 viewBox="0 0 293.7 22" style="enable-background:new 0 0 293.7 22;" xml:space="preserve">
<style type="text/css">
	.st0{fill:url(#SVGID_1_);}
	.st1{fill:url(#SVGID_2_);}
	.st2{fill:url(#SVGID_3_);}
	.st3{fill:url(#SVGID_4_);}
	.st4{fill:url(#SVGID_5_);}
	.st5{fill:url(#SVGID_6_);}
	.st6{fill:url(#SVGID_7_);}
	.st7{fill:url(#SVGID_8_);}
	.st8{fill:url(#SVGID_9_);}
</style>
<g>
	<linearGradient id="SVGID_1_" gradientUnits="userSpaceOnUse" x1="-0.5" y1="11.3821" x2="200.1801" y2="11.3821">
		<stop  offset="0" style="stop-color:#00D3FF"/>
		<stop  offset="0.9949" style="stop-color:#00FFCE"/>
	</linearGradient>
	<path class="st0" d="M1.6,11.4c0-5.1,3.8-9.2,9.3-9.2c3.4,0,5.2,1.3,6.9,2.9l-2.3,2.7c-1.4-1.2-2.5-2-4.6-2c-3,0-5.2,2.5-5.2,5.6
		c0,3.1,2.1,5.6,5.2,5.6c2,0,3.3-0.8,4.7-2.1l2.5,2.7c-1.8,2-3.9,3-7.3,3C5.5,20.6,1.6,16.5,1.6,11.4z"/>
	<linearGradient id="SVGID_2_" gradientUnits="userSpaceOnUse" x1="-0.5" y1="11.3821" x2="200.1801" y2="11.3821">
		<stop  offset="0" style="stop-color:#00D3FF"/>
		<stop  offset="0.9949" style="stop-color:#00FFCE"/>
	</linearGradient>
	<path class="st1" d="M22.9,11.4c0-5.1,4-9.2,9.5-9.2s9.4,4.1,9.4,9.2c0,5.1-4,9.2-9.5,9.2S22.9,16.5,22.9,11.4z M37.8,11.4
		c0-3.1-2.2-5.6-5.4-5.6S27,8.3,27,11.4c0,3.1,2.2,5.6,5.4,5.6C35.6,17,37.8,14.5,37.8,11.4z"/>
	<linearGradient id="SVGID_3_" gradientUnits="userSpaceOnUse" x1="-0.5" y1="11.3818" x2="200.1801" y2="11.3818">
		<stop  offset="0" style="stop-color:#00D3FF"/>
		<stop  offset="0.9949" style="stop-color:#00FFCE"/>
	</linearGradient>
	<path class="st2" d="M48.4,2.5H52l8.3,11v-11h3.9v17.8h-3.3L52.3,9v11.3h-3.9V2.5z"/>
	<linearGradient id="SVGID_4_" gradientUnits="userSpaceOnUse" x1="-0.5" y1="11.3818" x2="200.1801" y2="11.3818">
		<stop  offset="0" style="stop-color:#00D3FF"/>
		<stop  offset="0.9949" style="stop-color:#00FFCE"/>
	</linearGradient>
	<path class="st3" d="M75.7,6.1h-5.4V2.5h14.8v3.6h-5.4v14.2h-3.9V6.1z"/>
	<linearGradient id="SVGID_5_" gradientUnits="userSpaceOnUse" x1="-0.5" y1="11.3184" x2="200.1801" y2="11.3184">
		<stop  offset="0" style="stop-color:#00D3FF"/>
		<stop  offset="0.9949" style="stop-color:#00FFCE"/>
	</linearGradient>
	<path class="st4" d="M95,2.3h3.6l7.6,17.9h-4.1l-1.6-4h-7.5l-1.6,4h-4L95,2.3z M99.1,12.8l-2.4-5.8l-2.4,5.8H99.1z"/>
	<linearGradient id="SVGID_6_" gradientUnits="userSpaceOnUse" x1="-0.5" y1="11.3821" x2="200.1801" y2="11.3821">
		<stop  offset="0" style="stop-color:#00D3FF"/>
		<stop  offset="0.9949" style="stop-color:#00FFCE"/>
	</linearGradient>
	<path class="st5" d="M110.1,11.4c0-5.1,3.8-9.2,9.3-9.2c3.4,0,5.2,1.3,6.9,2.9l-2.3,2.7c-1.4-1.2-2.5-2-4.6-2c-3,0-5.2,2.5-5.2,5.6
		c0,3.1,2.1,5.6,5.2,5.6c2,0,3.3-0.8,4.7-2.1l2.5,2.7c-1.8,2-3.9,3-7.3,3C114,20.6,110.1,16.5,110.1,11.4z"/>
	<linearGradient id="SVGID_7_" gradientUnits="userSpaceOnUse" x1="-0.5" y1="11.3818" x2="200.1801" y2="11.3818">
		<stop  offset="0" style="stop-color:#00D3FF"/>
		<stop  offset="0.9949" style="stop-color:#00FFCE"/>
	</linearGradient>
	<path class="st6" d="M136.9,6.1h-5.4V2.5h14.8v3.6h-5.4v14.2h-3.9V6.1z"/>
	<linearGradient id="SVGID_8_" gradientUnits="userSpaceOnUse" x1="-0.5" y1="11.522" x2="200.1801" y2="11.522">
		<stop  offset="0" style="stop-color:#00D3FF"/>
		<stop  offset="0.9949" style="stop-color:#00FFCE"/>
	</linearGradient>
	<path class="st7" d="M162.7,12.7V2.5h3.9v10.1c0,2.9,1.5,4.4,3.8,4.4s3.8-1.5,3.8-4.3V2.5h3.9v10.1c0,5.4-3,8-7.8,8
		C165.6,20.6,162.7,17.9,162.7,12.7z"/>
	<linearGradient id="SVGID_9_" gradientUnits="userSpaceOnUse" x1="-0.5" y1="11.3821" x2="200.1801" y2="11.3821">
		<stop  offset="0" style="stop-color:#00D3FF"/>
		<stop  offset="0.9949" style="stop-color:#00FFCE"/>
	</linearGradient>
	<path class="st8" d="M184,17.7l2.3-2.8c1.6,1.3,3.3,2.2,5.3,2.2c1.6,0,2.6-0.6,2.6-1.7c0-1-0.6-1.5-3.6-2.3
		c-3.6-0.9-5.9-1.9-5.9-5.5c0-3.2,2.6-5.4,6.2-5.4c2.6,0,4.8,0.8,6.6,2.3l-2,3c-1.6-1.1-3.1-1.8-4.6-1.8s-2.3,0.7-2.3,1.6
		c0,1.2,0.8,1.6,3.8,2.3c3.6,0.9,5.7,2.2,5.7,5.4c0,3.5-2.7,5.5-6.5,5.5C188.9,20.5,186.2,19.6,184,17.7z"/>
</g>
</svg>
