<?xml version="1.0" encoding="utf-8"?>
<!-- Generator: Adobe Illustrator 20.1.0, SVG Export Plug-In . SVG Version: 6.00 Build 0)  -->
<svg version="1.1" id="Layer_1" xmlns="http://www.w3.org/2000/svg" xmlns:xlink="http://www.w3.org/1999/xlink" x="0px" y="0px"
	 viewBox="0 0 293.7 22" style="enable-background:new 0 0 293.7 22;" xml:space="preserve">
<style type="text/css">
	.st0{fill:url(#SVGID_1_);}
	.st1{fill:url(#SVGID_2_);}
	.st2{fill:url(#SVGID_3_);}
	.st3{fill:url(#SVGID_4_);}
	.st4{fill:url(#SVGID_5_);}
	.st5{fill:url(#SVGID_6_);}
	.st6{fill:url(#SVGID_7_);}
	.st7{fill:url(#SVGID_8_);}
	.st8{fill:url(#SVGID_9_);}
	.st9{fill:url(#SVGID_10_);}
	.st10{fill:url(#SVGID_11_);}
	.st11{fill:url(#SVGID_12_);}
</style>
<g id="svg-text">
	<linearGradient id="SVGID_1_" gradientUnits="userSpaceOnUse" x1="291.0417" y1="10.9791" x2="-1.3071" y2="10.9791">
		<stop  offset="0" style="stop-color:#00D3FF"/>
		<stop  offset="0.9949" style="stop-color:#00FFCE"/>
	</linearGradient>
	<path class="st0" d="M2,1.5h3.3v7.9h9.1V1.5h3.3v19h-3.3v-8H5.3v8H2V1.5z"/>
	<linearGradient id="SVGID_2_" gradientUnits="userSpaceOnUse" x1="291.0417" y1="10.9111" x2="-1.3071" y2="10.9111">
		<stop  offset="0" style="stop-color:#00D3FF"/>
		<stop  offset="0.9949" style="stop-color:#00FFCE"/>
	</linearGradient>
	<path class="st1" d="M32,1.4h3.1l8.3,19.1h-3.5L38,15.9h-9l-2,4.6h-3.4L32,1.4z M36.8,12.9l-3.3-7.6l-3.3,7.6H36.8z"/>
	<linearGradient id="SVGID_3_" gradientUnits="userSpaceOnUse" x1="291.0417" y1="10.9791" x2="-1.3071" y2="10.9791">
		<stop  offset="0" style="stop-color:#00D3FF"/>
		<stop  offset="0.9949" style="stop-color:#00FFCE"/>
	</linearGradient>
	<path class="st2" d="M49.4,1.5h3.3v16h7.5v-16h3.3v16h7.5v-16h3.3v19H49.4V1.5z"/>
	<linearGradient id="SVGID_4_" gradientUnits="userSpaceOnUse" x1="291.0417" y1="10.9791" x2="-1.3071" y2="10.9791">
		<stop  offset="0" style="stop-color:#00D3FF"/>
		<stop  offset="0.9949" style="stop-color:#00FFCE"/>
	</linearGradient>
	<path class="st3" d="M81.8,1.5h3.3v13.9l9.6-13.9h3.1v19h-3.3V6.6L85,20.5h-3.1V1.5z"/>
	<linearGradient id="SVGID_5_" gradientUnits="userSpaceOnUse" x1="291.0417" y1="10.9791" x2="-1.3071" y2="10.9791">
		<stop  offset="0" style="stop-color:#00D3FF"/>
		<stop  offset="0.9949" style="stop-color:#00FFCE"/>
	</linearGradient>
	<path class="st4" d="M116.2,1.5h3.3V11l9-9.5h4.1l-7.9,8.2l8.2,10.8h-4l-6.5-8.5l-3,3v5.5h-3.3V1.5z"/>
	<linearGradient id="SVGID_6_" gradientUnits="userSpaceOnUse" x1="291.0417" y1="10.9786" x2="-1.3071" y2="10.9786">
		<stop  offset="0" style="stop-color:#00D3FF"/>
		<stop  offset="0.9949" style="stop-color:#00FFCE"/>
	</linearGradient>
	<path class="st5" d="M136.9,11c0-5.3,4.1-9.8,9.9-9.8s9.9,4.4,9.9,9.8c0,5.3-4.1,9.8-9.9,9.8C141,20.8,136.9,16.4,136.9,11z
		 M153.3,11c0-3.7-2.7-6.7-6.5-6.7c-3.8,0-6.4,3-6.4,6.7c0,3.7,2.7,6.8,6.5,6.8C150.6,17.7,153.3,14.7,153.3,11z"/>
	<linearGradient id="SVGID_7_" gradientUnits="userSpaceOnUse" x1="291.0417" y1="10.9791" x2="-1.3071" y2="10.9791">
		<stop  offset="0" style="stop-color:#00D3FF"/>
		<stop  offset="0.9949" style="stop-color:#00FFCE"/>
	</linearGradient>
	<path class="st6" d="M163.5,1.5h3.3v7.9h9.1V1.5h3.3v19h-3.3v-8h-9.1v8h-3.3V1.5z"/>
	<linearGradient id="SVGID_8_" gradientUnits="userSpaceOnUse" x1="291.0417" y1="10.9791" x2="-1.3071" y2="10.9791">
		<stop  offset="0" style="stop-color:#00D3FF"/>
		<stop  offset="0.9949" style="stop-color:#00FFCE"/>
	</linearGradient>
	<path class="st7" d="M191.5,4.6h-6V1.5h15.4v3.1h-6v15.9h-3.4V4.6z"/>
	<linearGradient id="SVGID_9_" gradientUnits="userSpaceOnUse" x1="291.0417" y1="10.9111" x2="-1.3071" y2="10.9111">
		<stop  offset="0" style="stop-color:#00D3FF"/>
		<stop  offset="0.9949" style="stop-color:#00FFCE"/>
	</linearGradient>
	<path class="st8" d="M211.4,1.4h3.1l8.3,19.1h-3.5l-1.9-4.6h-9l-2,4.6H203L211.4,1.4z M216.1,12.9l-3.3-7.6l-3.3,7.6H216.1z"/>
	<linearGradient id="SVGID_10_" gradientUnits="userSpaceOnUse" x1="291.0417" y1="10.9791" x2="-1.3071" y2="10.9791">
		<stop  offset="0" style="stop-color:#00D3FF"/>
		<stop  offset="0.9949" style="stop-color:#00FFCE"/>
	</linearGradient>
	<path class="st9" d="M228.7,1.5h3.3V11l9-9.5h4.1l-7.9,8.2l8.2,10.8h-4l-6.5-8.5l-3,3v5.5h-3.3V1.5z"/>
	<linearGradient id="SVGID_11_" gradientUnits="userSpaceOnUse" x1="291.0417" y1="10.9791" x2="-1.3071" y2="10.9791">
		<stop  offset="0" style="stop-color:#00D3FF"/>
		<stop  offset="0.9949" style="stop-color:#00FFCE"/>
	</linearGradient>
	<path class="st10" d="M255.8,4.6h-6V1.5h15.4v3.1h-6v15.9h-3.4V4.6z"/>
	<linearGradient id="SVGID_12_" gradientUnits="userSpaceOnUse" x1="291.0417" y1="10.9791" x2="-1.3071" y2="10.9791">
		<stop  offset="0" style="stop-color:#00D3FF"/>
		<stop  offset="0.9949" style="stop-color:#00FFCE"/>
	</linearGradient>
	<path class="st11" d="M271.4,1.5h3.3v6.8h4.4c4.3,0,7.1,2.1,7.1,5.9s-2.8,6.2-7.2,6.2h-7.6V1.5z M278.9,17.5c2.5,0,3.9-1.1,3.9-3.3
		c0-2-1.4-3-4-3h-4.2v6.3H278.9z M288.4,1.5h3.3v19h-3.3V1.5z"/>
</g>
</svg>
