<?xml version="1.0" encoding="utf-8"?>
<!-- Generator: Adobe Illustrator 20.1.0, SVG Export Plug-In . SVG Version: 6.00 Build 0)  -->
<svg version="1.1" id="Layer_1" xmlns="http://www.w3.org/2000/svg" xmlns:xlink="http://www.w3.org/1999/xlink" x="0px" y="0px"
	 viewBox="0 0 551 134" style="enable-background:new 0 0 551 134;" xml:space="preserve">
<style type="text/css">
	.st0{fill:url(#SVGID_1_);}
	.st1{fill:url(#SVGID_2_);}
	.st2{fill:url(#SVGID_3_);}
	.st3{fill:url(#SVGID_4_);}
	.st4{fill:url(#SVGID_5_);}
	.st5{fill:url(#SVGID_6_);}
	.st6{fill:url(#SVGID_7_);}
	.st7{fill:url(#SVGID_8_);}
	.st8{fill:url(#SVGID_9_);}
	.st9{fill:url(#SVGID_10_);}
	.st10{fill:#FFFFFF;}
</style>
<g id="logo-f">
	<g>
		<g>
			
				<linearGradient id="SVGID_1_" gradientUnits="userSpaceOnUse" x1="60.75" y1="0.9429" x2="60.75" y2="135.5596" gradientTransform="matrix(1 0 0 -1 0 136)">
				<stop  offset="0" style="stop-color:#00D3FF"/>
				<stop  offset="0.9949" style="stop-color:#00FFCE"/>
			</linearGradient>
			<path class="st0" d="M66.1,22.7c0,2.8-2.1,5.3-5.3,5.3s-5.4-2.4-5.4-5.3c0-2.8,2.1-5.3,5.4-5.3C64,17.4,66.1,19.8,66.1,22.7z"/>
			
				<linearGradient id="SVGID_2_" gradientUnits="userSpaceOnUse" x1="59.5" y1="1.5495" x2="59.5" y2="135.5571" gradientTransform="matrix(1 0 0 -1 0 136)">
				<stop  offset="0" style="stop-color:#00D3FF"/>
				<stop  offset="0.9949" style="stop-color:#00FFCE"/>
			</linearGradient>
			<path class="st1" d="M20.1,113c-0.6-0.6-1.4-1-2.5-1h-2v7.5h2c1.1,0,1.9-0.3,2.5-1c0.6-0.6,0.9-1.6,0.9-2.8
				C21,114.6,20.7,113.7,20.1,113z M20.1,113c-0.6-0.6-1.4-1-2.5-1h-2v7.5h2c1.1,0,1.9-0.3,2.5-1c0.6-0.6,0.9-1.6,0.9-2.8
				C21,114.6,20.7,113.7,20.1,113z M20.1,113c-0.6-0.6-1.4-1-2.5-1h-2v7.5h2c1.1,0,1.9-0.3,2.5-1c0.6-0.6,0.9-1.6,0.9-2.8
				C21,114.6,20.7,113.7,20.1,113z M20.1,113c-0.6-0.6-1.4-1-2.5-1h-2v7.5h2c1.1,0,1.9-0.3,2.5-1c0.6-0.6,0.9-1.6,0.9-2.8
				C21,114.6,20.7,113.7,20.1,113z M20.1,113c-0.6-0.6-1.4-1-2.5-1h-2v7.5h2c1.1,0,1.9-0.3,2.5-1c0.6-0.6,0.9-1.6,0.9-2.8
				C21,114.6,20.7,113.7,20.1,113z M85.2,112.4L85.2,112.4l-1.6,4.4h3.1L85.2,112.4z M85.2,112.4L85.2,112.4l-1.6,4.4h3.1
				L85.2,112.4z M20.1,113c-0.6-0.6-1.4-1-2.5-1h-2v7.5h2c1.1,0,1.9-0.3,2.5-1c0.6-0.6,0.9-1.6,0.9-2.8
				C21,114.6,20.7,113.7,20.1,113z M118,93V1H85.5v14c1-2.1,3.5-3.8,7.1-3.8c6.4,0,10.9,5.2,10.9,11.5S99,33.8,92.6,33.8
				c-3.5,0-6.2-1.3-7.2-3.4L85,33.8h-6.3V1H35.6v26h8.1v6.8h-15V1H1v132h117V95h-15v-2H118z M21,119.3c-0.8,0.8-1.9,1.3-3.3,1.3
				h-3.3V111h3.3c1.4,0,2.5,0.4,3.3,1.3c0.8,0.8,1.2,2,1.2,3.5S21.8,118.5,21,119.3z M32,120.6h-1.2V111H32V120.6z M30.6,75.2
				l11.2-23.5H28.7v-1.6h15v1.6L32.5,75.2H30.6z M49.1,116.6c0,1.3-0.4,2.3-1.1,3c-0.7,0.7-1.7,1.1-3,1.1s-2.4-0.5-3.2-1.4
				s-1.2-2.1-1.2-3.7c0-1.5,0.4-2.7,1.2-3.6s1.9-1.3,3.2-1.3c1,0,1.9,0.3,2.7,0.9c0.7,0.6,1.2,1.3,1.4,2.3h-1.3
				c-0.2-0.6-0.5-1.2-1-1.5c-0.5-0.4-1.1-0.5-1.7-0.5c-1,0-1.8,0.3-2.3,1c-0.6,0.7-0.8,1.6-0.8,2.8c0,1.2,0.3,2.2,0.9,2.9
				c0.6,0.7,1.3,1.1,2.3,1.1c0.9,0,1.5-0.3,2.1-0.8c0.5-0.5,0.8-1.2,0.8-2v-0.2h-2.7v-1h3.9v0.9H49.1z M59,120.6h-1.2V111H59V120.6z
				 M57.8,75.9c-5.4,0-9-3.7-9-8.3h1.7c0,3.9,3.1,6.6,7.2,6.6c4.2,0,6.6-2.6,6.6-5.7c0-3.9-3.6-5.2-6.9-5.2h-2v-1.6h2
				c3.5,0,5.9-1.6,5.9-4.8c0-3-2.3-5.3-5.9-5.3c-4.1,0-6.9,2.8-6.9,6.6h-1.7c0-4.5,3.3-8.3,8.7-8.3C62,50,65,53,65,56.8
				c0,2.8-1.5,4.6-3.7,5.6c2.6,0.9,4.7,2.8,4.7,6.2C66,72.5,63.1,75.9,57.8,75.9z M66.8,30.3c-1,2.1-3.7,3.5-7.2,3.5
				c-6.4,0-10.9-4.8-10.9-11.1s4.5-11.5,10.9-11.5c3.5,0,6.1,1.7,7.2,3.9l0.3-3.4h6.4v22.2h-6.4L66.8,30.3z M74.8,112.1h-3.1v8.5
				h-1.2v-8.5h-3.1V111h7.4C74.8,111,74.8,112.1,74.8,112.1z M88.1,120.6l-1-2.8h-3.8l-1,2.8H81l3.5-9.6h1.2l3.5,9.6H88.1z
				 M103.4,119.5v1.1h-5.8V111h1.2v8.5H103.4z M85.2,112.4l-1.5,4.4h3.1L85.2,112.4L85.2,112.4z M17.6,112.1h-2v7.5h2
				c1.1,0,1.9-0.3,2.5-1c0.6-0.6,0.9-1.6,0.9-2.8c0-1.2-0.3-2.1-0.9-2.8C19.6,112.4,18.7,112.1,17.6,112.1z M20.1,113
				c-0.6-0.6-1.4-1-2.5-1h-2v7.5h2c1.1,0,1.9-0.3,2.5-1c0.6-0.6,0.9-1.6,0.9-2.8C21,114.6,20.7,113.7,20.1,113z M20.1,113
				c-0.6-0.6-1.4-1-2.5-1h-2v7.5h2c1.1,0,1.9-0.3,2.5-1c0.6-0.6,0.9-1.6,0.9-2.8C21,114.6,20.7,113.7,20.1,113z M20.1,113
				c-0.6-0.6-1.4-1-2.5-1h-2v7.5h2c1.1,0,1.9-0.3,2.5-1c0.6-0.6,0.9-1.6,0.9-2.8C21,114.6,20.7,113.7,20.1,113z M20.1,113
				c-0.6-0.6-1.4-1-2.5-1h-2v7.5h2c1.1,0,1.9-0.3,2.5-1c0.6-0.6,0.9-1.6,0.9-2.8C21,114.6,20.7,113.7,20.1,113z M20.1,113
				c-0.6-0.6-1.4-1-2.5-1h-2v7.5h2c1.1,0,1.9-0.3,2.5-1c0.6-0.6,0.9-1.6,0.9-2.8C21,114.6,20.7,113.7,20.1,113z M20.1,113
				c-0.6-0.6-1.4-1-2.5-1h-2v7.5h2c1.1,0,1.9-0.3,2.5-1c0.6-0.6,0.9-1.6,0.9-2.8C21,114.6,20.7,113.7,20.1,113z M91.4,17.8
				c-3.2,0-5.3,2.4-5.3,5.3c0,2.8,2.1,5.3,5.3,5.3c3.2,0,5.3-2.4,5.3-5.3C96.7,20.3,94.6,17.8,91.4,17.8z"/>
		</g>
		
			<linearGradient id="SVGID_3_" gradientUnits="userSpaceOnUse" x1="222.5" y1="19" x2="222.5" y2="92.9072" gradientTransform="matrix(1 0 0 -1 0 136)">
			<stop  offset="0" style="stop-color:#00D3FF"/>
			<stop  offset="0.9949" style="stop-color:#00FFCE"/>
		</linearGradient>
		<rect x="118" y="93" class="st2" width="209" height="2"/>
	</g>
</g>
<g>
	<g>
		
			<linearGradient id="SVGID_4_" gradientUnits="userSpaceOnUse" x1="251" y1="88" x2="277" y2="88" gradientTransform="matrix(1 0 0 -1 0 136)">
			<stop  offset="0" style="stop-color:#00D3FF"/>
			<stop  offset="0.9949" style="stop-color:#00FFCE"/>
		</linearGradient>
		<path class="st3" d="M261.7,34.5c8.5,0,14.3,5.8,14.3,13.5c0,7.6-5.9,13.5-14.3,13.5H252v-27H261.7 M254.8,58.6h6.9
			c6.8,0,11.2-4.6,11.2-10.7c0-6-4.4-10.7-11.2-10.7h-6.9L254.8,58.6 M261.7,33.5H252h-1v1v27v1h1h9.7c8.9,0,15.3-6.1,15.3-14.5
			S270.5,33.5,261.7,33.5L261.7,33.5z M255.8,38.3h5.9c6,0,10.2,4,10.2,9.7s-4.2,9.7-10.2,9.7h-5.9L255.8,38.3L255.8,38.3z"/>
		
			<linearGradient id="SVGID_5_" gradientUnits="userSpaceOnUse" x1="288.4244" y1="88.15" x2="293.8897" y2="88.15" gradientTransform="matrix(1 0 0 -1 0 136)">
			<stop  offset="0" style="stop-color:#00D3FF"/>
			<stop  offset="0.9949" style="stop-color:#00FFCE"/>
		</linearGradient>
		<path class="st4" d="M292.9,34v27.7h-3.5V34H292.9 M293.9,33h-1h-3.5h-1v1v27.7v1h1h3.5h1v-1V34V33L293.9,33z"/>
		
			<linearGradient id="SVGID_6_" gradientUnits="userSpaceOnUse" x1="304.7635" y1="88.1" x2="331.304" y2="88.1" gradientTransform="matrix(1 0 0 -1 0 136)">
			<stop  offset="0" style="stop-color:#00D3FF"/>
			<stop  offset="0.9949" style="stop-color:#00FFCE"/>
		</linearGradient>
		<path class="st5" d="M319.3,34c4.5,0,7.4,1.3,10.1,3.6l-2,2.3c-2.1-1.8-4.4-3.1-8.2-3.1c-6,0-10.2,5-10.2,11.1
			c0,6.4,4.1,11.2,10.7,11.2c3.1,0,5.9-1.2,7.8-2.7v-6.6h-8.2v-2.7h11.1v10.6c-2.5,2.2-6.3,4.1-10.8,4.1c-8.5,0-13.7-6.2-13.7-13.9
			C305.8,40.5,311.2,34,319.3,34 M319.3,33c-8.1,0-14.5,6.6-14.5,14.9c0,8.8,6.1,14.9,14.7,14.9c5.7,0,9.7-2.7,11.5-4.4l0.3-0.3
			v-0.4V47.2v-1h-1h-11.1h-1v1v2.7v1h1h7.2V56c-1.9,1.4-4.4,2.2-6.8,2.2c-5.8,0-9.7-4.1-9.7-10.2c0-5.8,4-10.1,9.2-10.1
			c3.8,0,5.9,1.4,7.5,2.8l0.8,0.7l0.7-0.8l2-2.3l0.7-0.8l-0.8-0.6C326.8,34.1,323.7,33,319.3,33L319.3,33z"/>
		
			<linearGradient id="SVGID_7_" gradientUnits="userSpaceOnUse" x1="343.175" y1="88.15" x2="347.9473" y2="88.15" gradientTransform="matrix(1 0 0 -1 0 136)">
			<stop  offset="0" style="stop-color:#00D3FF"/>
			<stop  offset="0.9949" style="stop-color:#00FFCE"/>
		</linearGradient>
		<path class="st6" d="M346.9,34v27.7h-2.8V34H346.9 M347.9,33h-1h-2.8h-1v1v27.7v1h1h2.8h1v-1V34V33L347.9,33z"/>
		
			<linearGradient id="SVGID_8_" gradientUnits="userSpaceOnUse" x1="358.4" y1="88.1" x2="381.2" y2="88.1" gradientTransform="matrix(1 0 0 -1 0 136)">
			<stop  offset="0" style="stop-color:#00D3FF"/>
			<stop  offset="0.9949" style="stop-color:#00FFCE"/>
		</linearGradient>
		<path class="st7" d="M380.2,34v2.8h-8.4v24.9h-3.4V36.8h-9V34H380.2 M381.2,33h-1h-20.8h-1v1v2.8v1h1h8v24v1h1h3.4h1v-1V37.9h7.4
			h1v-1V34V33L381.2,33z"/>
		
			<linearGradient id="SVGID_9_" gradientUnits="userSpaceOnUse" x1="386" y1="87.8" x2="416.53" y2="87.8" gradientTransform="matrix(1 0 0 -1 0 136)">
			<stop  offset="0" style="stop-color:#00D3FF"/>
			<stop  offset="0.9949" style="stop-color:#00FFCE"/>
		</linearGradient>
		<path class="st8" d="M402.7,34.6L415,61.7h-3.3l-3.2-7.1h-14.7l-3.2,7.1h-3.1l12.3-27.2L402.7,34.6 M395.1,51.9h12.3l-6.1-13.8
			L395.1,51.9 M403.3,33.6h-0.6h-2.9h-0.6l-0.3,0.6l-12.3,27.2l-0.6,1.4h1.6h3.1h0.6l0.3-0.6l2.9-6.5h13.4l2.9,6.5l0.3,0.6h0.7h3.3
			h1.6l-0.6-1.4l-12.3-27.2L403.3,33.6L403.3,33.6z M396.6,50.9l4.6-10.3l4.6,10.3H396.6L396.6,50.9z"/>
		
			<linearGradient id="SVGID_10_" gradientUnits="userSpaceOnUse" x1="425.6475" y1="88.15" x2="445.6475" y2="88.15" gradientTransform="matrix(1 0 0 -1 0 136)">
			<stop  offset="0" style="stop-color:#00D3FF"/>
			<stop  offset="0.9949" style="stop-color:#00FFCE"/>
		</linearGradient>
		<path class="st9" d="M430.1,34v24.8h14.6v2.8h-18V34H430.1 M431.1,33h-1h-3.5h-1v1v27.7v1h1h18h1v-1v-2.8v-1h-1H431V34v-1H431.1z"
			/>
	</g>
</g>
<g>
	<path class="st10" d="M351,84.4h4.2l9,21h-4.8l-1.9-4.7h-8.8l-1.9,4.7H342L351,84.4z M355.8,96.7l-2.8-6.8l-2.8,6.8H355.8z"/>
	<path class="st10" d="M368.7,95c0-5.9,4.6-10.8,11-10.8c3.8,0,6,1,8.2,2.9l-2.9,3.5c-1.6-1.3-3-2.1-5.5-2.1c-3.3,0-6,3-6,6.6
		c0,3.8,2.6,6.6,6.3,6.6c1.7,0,3.2-0.4,4.3-1.3v-3h-4.6v-4h9.1v9.1c-2.1,1.8-5.1,3.3-8.9,3.3C373.2,105.8,368.7,101.2,368.7,95z"/>
	<path class="st10" d="M396.6,84.6h15.8v4.1h-11.2v4.2h9.8V97h-9.8v4.4h11.3v4.1h-15.9V84.6z"/>
	<path class="st10" d="M420.2,84.6h4.2l9.8,12.9V84.6h4.5v20.9h-3.9l-10.1-13.3v13.3h-4.5V84.6z"/>
	<path class="st10" d="M446.4,95c0-5.9,4.5-10.8,10.9-10.8c3.9,0,6.1,1.5,8.1,3.4l-2.7,3.2c-1.6-1.5-3-2.3-5.4-2.3
		c-3.5,0-6.1,2.9-6.1,6.6c0,3.6,2.5,6.6,6.1,6.6c2.4,0,3.8-1,5.5-2.4l2.9,3.1c-2.1,2.3-4.5,3.6-8.6,3.6
		C451,105.8,446.4,101.1,446.4,95z"/>
	<path class="st10" d="M478.5,97.2l-8-12.7h5.4l5,8.4l5.1-8.4h5.2l-8,12.6v8.3h-4.6V97.2z"/>
</g>
</svg>
