<?xml version="1.0" encoding="utf-8"?>
<!-- Generator: Adobe Illustrator 21.0.2, SVG Export Plug-In . SVG Version: 6.00 Build 0)  -->
<svg version="1.1" id="Layer_1" xmlns="http://www.w3.org/2000/svg" xmlns:xlink="http://www.w3.org/1999/xlink" x="0px" y="0px"
	 viewBox="0 0 1920 1080" style="enable-background:new 0 0 1920 1080;" xml:space="preserve">
<style type="text/css">
	.st0{fill:url(#SVGID_1_);}
	.st1{fill:url(#SVGID_2_);}
	.st2{fill:url(#SVGID_3_);}
	.st3{fill:url(#SVGID_4_);}
	.st4{fill:url(#SVGID_5_);}
	.st5{fill:url(#SVGID_6_);}
	.st6{fill:url(#SVGID_7_);}
	.st7{fill:url(#SVGID_8_);}
	.st8{fill:url(#SVGID_9_);}
	.st9{fill:url(#SVGID_10_);}
	.st10{fill:url(#SVGID_11_);}
	.st11{fill:url(#SVGID_12_);}
</style>
<g id="svg-text">
	<linearGradient id="SVGID_1_" gradientUnits="userSpaceOnUse" x1="655.0677" y1="664.8124" x2="362.719" y2="664.8124">
		<stop  offset="0" style="stop-color:#00D3FF"/>
		<stop  offset="0.9949" style="stop-color:#00FFCE"/>
	</linearGradient>
	<path class="st0" d="M366,655.3h3.3v7.9h9.1v-7.9h3.3v19h-3.3v-8h-9.1v8H366V655.3z"/>
	<linearGradient id="SVGID_2_" gradientUnits="userSpaceOnUse" x1="655.0677" y1="664.7444" x2="362.719" y2="664.7444">
		<stop  offset="0" style="stop-color:#00D3FF"/>
		<stop  offset="0.9949" style="stop-color:#00FFCE"/>
	</linearGradient>
	<path class="st1" d="M396,655.2h3.1l8.3,19.1h-3.5l-1.9-4.6h-9l-2,4.6h-3.4L396,655.2z M400.8,666.8l-3.3-7.6l-3.3,7.6H400.8z"/>
	<linearGradient id="SVGID_3_" gradientUnits="userSpaceOnUse" x1="655.0677" y1="664.8124" x2="362.719" y2="664.8124">
		<stop  offset="0" style="stop-color:#00D3FF"/>
		<stop  offset="0.9949" style="stop-color:#00FFCE"/>
	</linearGradient>
	<path class="st2" d="M413.4,655.3h3.3v16h7.5v-16h3.3v16h7.5v-16h3.3v19h-24.9V655.3z"/>
	<linearGradient id="SVGID_4_" gradientUnits="userSpaceOnUse" x1="655.0677" y1="664.8124" x2="362.719" y2="664.8124">
		<stop  offset="0" style="stop-color:#00D3FF"/>
		<stop  offset="0.9949" style="stop-color:#00FFCE"/>
	</linearGradient>
	<path class="st3" d="M445.8,655.3h3.3v13.9l9.6-13.9h3.1v19h-3.3v-13.8l-9.6,13.8h-3.1V655.3z"/>
	<linearGradient id="SVGID_5_" gradientUnits="userSpaceOnUse" x1="655.0677" y1="664.8124" x2="362.719" y2="664.8124">
		<stop  offset="0" style="stop-color:#00D3FF"/>
		<stop  offset="0.9949" style="stop-color:#00FFCE"/>
	</linearGradient>
	<path class="st4" d="M480.3,655.3h3.3v9.5l9-9.5h4.1l-7.9,8.2l8.2,10.8h-4l-6.5-8.5l-3,3v5.5h-3.3V655.3z"/>
	<linearGradient id="SVGID_6_" gradientUnits="userSpaceOnUse" x1="655.0677" y1="664.812" x2="362.719" y2="664.812">
		<stop  offset="0" style="stop-color:#00D3FF"/>
		<stop  offset="0.9949" style="stop-color:#00FFCE"/>
	</linearGradient>
	<path class="st5" d="M501,664.8c0-5.3,4.1-9.8,9.9-9.8s9.9,4.4,9.9,9.8c0,5.3-4.1,9.8-9.9,9.8C505,674.6,501,670.2,501,664.8z
		 M517.3,664.8c0-3.7-2.7-6.7-6.5-6.7c-3.8,0-6.4,3-6.4,6.7c0,3.7,2.7,6.8,6.5,6.8C514.7,671.6,517.3,668.6,517.3,664.8z"/>
	<linearGradient id="SVGID_7_" gradientUnits="userSpaceOnUse" x1="655.0677" y1="664.8124" x2="362.719" y2="664.8124">
		<stop  offset="0" style="stop-color:#00D3FF"/>
		<stop  offset="0.9949" style="stop-color:#00FFCE"/>
	</linearGradient>
	<path class="st6" d="M527.5,655.3h3.3v7.9h9.1v-7.9h3.3v19h-3.3v-8h-9.1v8h-3.3V655.3z"/>
	<linearGradient id="SVGID_8_" gradientUnits="userSpaceOnUse" x1="655.0677" y1="664.8124" x2="362.719" y2="664.8124">
		<stop  offset="0" style="stop-color:#00D3FF"/>
		<stop  offset="0.9949" style="stop-color:#00FFCE"/>
	</linearGradient>
	<path class="st7" d="M555.5,658.4h-6v-3.1h15.4v3.1h-6v15.9h-3.4V658.4z"/>
	<linearGradient id="SVGID_9_" gradientUnits="userSpaceOnUse" x1="655.0677" y1="664.7444" x2="362.719" y2="664.7444">
		<stop  offset="0" style="stop-color:#00D3FF"/>
		<stop  offset="0.9949" style="stop-color:#00FFCE"/>
	</linearGradient>
	<path class="st8" d="M575.4,655.2h3.1l8.3,19.1h-3.5l-1.9-4.6h-9l-2,4.6H567L575.4,655.2z M580.1,666.8l-3.3-7.6l-3.3,7.6H580.1z"
		/>
	<linearGradient id="SVGID_10_" gradientUnits="userSpaceOnUse" x1="655.0677" y1="664.8124" x2="362.719" y2="664.8124">
		<stop  offset="0" style="stop-color:#00D3FF"/>
		<stop  offset="0.9949" style="stop-color:#00FFCE"/>
	</linearGradient>
	<path class="st9" d="M592.8,655.3h3.3v9.5l9-9.5h4.1l-7.9,8.2l8.2,10.8h-4l-6.5-8.5l-3,3v5.5h-3.3V655.3z"/>
	<linearGradient id="SVGID_11_" gradientUnits="userSpaceOnUse" x1="655.0677" y1="664.8124" x2="362.719" y2="664.8124">
		<stop  offset="0" style="stop-color:#00D3FF"/>
		<stop  offset="0.9949" style="stop-color:#00FFCE"/>
	</linearGradient>
	<path class="st10" d="M619.8,658.4h-6v-3.1h15.4v3.1h-6v15.9h-3.4V658.4z"/>
	<linearGradient id="SVGID_12_" gradientUnits="userSpaceOnUse" x1="655.0677" y1="664.8124" x2="362.719" y2="664.8124">
		<stop  offset="0" style="stop-color:#00D3FF"/>
		<stop  offset="0.9949" style="stop-color:#00FFCE"/>
	</linearGradient>
	<path class="st11" d="M635.4,655.3h3.3v6.8h4.4c4.3,0,7.1,2.1,7.1,5.9s-2.8,6.2-7.2,6.2h-7.6V655.3z M643,671.3
		c2.5,0,3.9-1.1,3.9-3.3c0-2-1.4-3-4-3h-4.2v6.3H643z M652.4,655.3h3.3v19h-3.3V655.3z"/>
</g>
</svg>
